# xmcd
#
# Track frame offsets:
#	150
#	9850
#	18792
#	29797
#	39670
#	50970
#	60752
#	77002
#	88675
#	98920
#	107545
#	115302
#	125787
#	135687
#	143310
#	155660
#	164522
#	173270
#	182162
#	190510
#
# Disc length: 2666 seconds
#
# Revision: 7
# Processed by: cddbd v1.5.2PL0 Copyright (c) Steve Scherf et al.
# Submitted via: EZCDAudioConverter 1.2.3.1
#
DISCID=fc0a6814
DTITLE=Various Artist - Lost Legends Of Surf Guitar III: Cheater Stomp!
DYEAR=2003
DGENRE=Surf
TTITLE0=FABULOUS PLAYBOYS - Cheater Stomp
TTITLE1=P.J. and ARTIE - Squad Car
TTITLE2=THE CHALLENGERS - Satan's Theme
TTITLE3=THE PROGRESSIVES - Hot Cinders
TTITLE4=THE VIBRANTS - Scorpion
TTITLE5=THOM STARR and THE GALAXIES - Mr. Moto
TTITLE6=P.J. and ARTIE - (They Call The Wind) Maria
TTITLE7=THE SURFRIDERS - SurfBeat
TTITLE8=THE CHALLENGERS - Rampage
TTITLE9=THE GLADIATORS - Istambul
TTITLE10=P.J. and ARTIE - Fink
TTITLE11=THE SURFRIDERS - Rum Runner
TTITLE12=THOM STARR and THE GALAXIES - Heatwave
TTITLE13=THE VIBRANTS - WildFire
TTITLE14=THOM STARR and THE GALAXIES - Strange Fever
TTITLE15=THE PROGRESSIVES - Man Of Mystery
TTITLE16=THE CHALLENGERS - Volcanic Action
TTITLE17=KENNY and THE FIENDS - Moon shot
TTITLE18=FABULOUS PLAYBOYS - Shortnin' Bread
TTITLE19=THE TRAVELERS - Spanish Moon
EXTD=
EXTT0=
EXTT1=
EXTT2=
EXTT3=
EXTT4=
EXTT5=
EXTT6=
EXTT7=
EXTT8=
EXTT9=
EXTT10=
EXTT11=
EXTT12=
EXTT13=
EXTT14=
EXTT15=
EXTT16=
EXTT17=
EXTT18=
EXTT19=
PLAYORDER=
